<svg xmlns="http://www.w3.org/2000/svg" viewBox="0 0 140 149">
  <path d="M73.5514 148.102C29.4879 148.102 -2.13166 112.607 0.112314 70.9911C2.15229 31.8236 34.5879 0 74.7754 0C91.5031 0 103.335 5.91592 114.351 5.91592C118.431 5.91592 124.347 5.09994 126.387 1.42799L129.243 1.22399L133.119 60.1792L130.263 60.5872C124.143 35.9035 102.315 3.67195 74.9794 3.67195C55.1916 3.67195 34.5879 22.6437 34.3839 55.4873C34.1799 92.2068 60.2915 118.93 92.3191 118.93C113.739 118.93 130.263 106.895 136.995 89.9629L139.443 90.5748C134.751 124.642 109.047 148.102 73.5514 148.102Z" fill="currentColor"/>
</svg>
